<?xml version="1.0" encoding="UTF-8" standalone="no"?>
<!DOCTYPE svg PUBLIC "-//W3C//DTD SVG 1.1//EN"
 "http://www.w3.org/Graphics/SVG/1.1/DTD/svg11.dtd">
<!-- Generated by graphviz version 12.2.1 (0)
 -->
<!-- Pages: 1 -->
<svg width="252pt" height="65pt"
 viewBox="0.00 0.00 252.46 64.53" xmlns="http://www.w3.org/2000/svg" xmlns:xlink="http://www.w3.org/1999/xlink">
<g id="graph0" class="graph" transform="scale(1 1) rotate(0) translate(4 60.53)">
<!-- A -->
<g id="node1" class="node">
<title>A</title>
<polygon fill="none" stroke="#ffffff" stroke-opacity="0.600000" points="31.4,-0.05 33.16,-0.14 34.91,-0.28 36.62,-0.46 38.31,-0.68 39.96,-0.96 41.56,-1.27 43.11,-1.63 44.6,-2.03 46.02,-2.47 47.38,-2.94 48.67,-3.46 49.88,-4.01 51.01,-4.6 52.05,-5.22 53.01,-5.87 53.87,-6.56 54.65,-7.27 55.33,-8 55.92,-8.76 56.41,-9.54 56.81,-10.35 57.12,-11.17 57.33,-12 57.45,-12.85 57.49,-13.71 57.43,-14.58 57.29,-15.45 57.07,-16.33 56.77,-17.2 56.4,-18.08 55.95,-18.95 55.43,-19.82 54.85,-20.68 54.21,-21.53 53.51,-22.36 52.76,-23.18 51.96,-23.98 51.11,-24.77 50.23,-25.53 49.3,-26.26 48.34,-26.97 47.35,-27.66 46.33,-28.31 45.29,-28.93 44.22,-29.52 43.14,-30.07 42.04,-30.58 40.92,-31.06 39.79,-31.5 38.65,-31.9 37.51,-32.26 36.35,-32.57 35.19,-32.84 34.02,-33.07 32.85,-33.25 31.68,-33.39 30.51,-33.48 29.33,-33.53 28.16,-33.53 26.98,-33.48 25.81,-33.39 24.63,-33.25 23.46,-33.07 22.3,-32.84 21.14,-32.57 19.98,-32.26 18.83,-31.9 17.7,-31.5 16.57,-31.06 15.45,-30.58 14.35,-30.07 13.27,-29.52 12.2,-28.93 11.16,-28.31 10.14,-27.66 9.15,-26.97 8.19,-26.26 7.26,-25.53 6.37,-24.77 5.53,-23.98 4.73,-23.18 3.97,-22.36 3.28,-21.53 2.63,-20.68 2.05,-19.82 1.54,-18.95 1.09,-18.08 0.71,-17.2 0.41,-16.33 0.19,-15.45 0.05,-14.58 0,-13.71 0.03,-12.85 0.16,-12 0.37,-11.17 0.67,-10.35 1.07,-9.54 1.57,-8.76 2.16,-8 2.84,-7.27 3.61,-6.56 4.48,-5.87 5.44,-5.22 6.48,-4.6 7.61,-4.01 8.82,-3.46 10.1,-2.94 11.46,-2.47 12.89,-2.03 14.38,-1.63 15.93,-1.27 17.53,-0.96 19.18,-0.68 20.86,-0.46 22.58,-0.28 24.32,-0.14 26.08,-0.05 27.86,0 29.63,0 31.4,-0.05"/>
<text text-anchor="middle" x="28.74" y="-12.66" font-family="terminus" font-size="13.00" fill="white">A</text>
</g>
<!-- B -->
<g id="node2" class="node">
<title>B</title>
<polygon fill="none" stroke="#ffffff" stroke-opacity="0.600000" points="124.89,-23.05 126.65,-23.14 128.39,-23.28 130.11,-23.46 131.8,-23.68 133.44,-23.96 135.04,-24.27 136.59,-24.63 138.08,-25.03 139.51,-25.47 140.87,-25.94 142.16,-26.46 143.37,-27.01 144.5,-27.6 145.54,-28.22 146.49,-28.87 147.36,-29.56 148.14,-30.27 148.82,-31 149.41,-31.76 149.9,-32.54 150.3,-33.35 150.61,-34.17 150.82,-35 150.94,-35.85 150.97,-36.71 150.92,-37.58 150.78,-38.45 150.56,-39.33 150.26,-40.2 149.88,-41.08 149.44,-41.95 148.92,-42.82 148.34,-43.68 147.7,-44.53 147,-45.36 146.25,-46.18 145.45,-46.98 144.6,-47.77 143.71,-48.53 142.79,-49.26 141.83,-49.97 140.84,-50.66 139.82,-51.31 138.77,-51.93 137.71,-52.52 136.62,-53.07 135.52,-53.58 134.41,-54.06 133.28,-54.5 132.14,-54.9 130.99,-55.26 129.84,-55.57 128.68,-55.84 127.51,-56.07 126.34,-56.25 125.17,-56.39 123.99,-56.48 122.82,-56.53 121.64,-56.53 120.47,-56.48 119.29,-56.39 118.12,-56.25 116.95,-56.07 115.78,-55.84 114.62,-55.57 113.47,-55.26 112.32,-54.9 111.18,-54.5 110.05,-54.06 108.94,-53.58 107.84,-53.07 106.75,-52.52 105.69,-51.93 104.64,-51.31 103.62,-50.66 102.63,-49.97 101.67,-49.26 100.75,-48.53 99.86,-47.77 99.01,-46.98 98.21,-46.18 97.46,-45.36 96.76,-44.53 96.12,-43.68 95.54,-42.82 95.02,-41.95 94.58,-41.08 94.2,-40.2 93.9,-39.33 93.68,-38.45 93.54,-37.58 93.49,-36.71 93.52,-35.85 93.64,-35 93.86,-34.17 94.16,-33.35 94.56,-32.54 95.05,-31.76 95.64,-31 96.32,-30.27 97.1,-29.56 97.97,-28.87 98.92,-28.22 99.97,-27.6 101.09,-27.01 102.3,-26.46 103.59,-25.94 104.95,-25.47 106.38,-25.03 107.87,-24.63 109.42,-24.27 111.02,-23.96 112.66,-23.68 114.35,-23.46 116.07,-23.28 117.81,-23.14 119.57,-23.05 121.34,-23 123.12,-23 124.89,-23.05"/>
<text text-anchor="middle" x="122.23" y="-35.66" font-family="terminus" font-size="13.00" fill="white">B</text>
</g>
<!-- A&#45;&gt;B -->
<g id="edge1" class="edge">
<title>A&#45;&gt;B</title>
<path fill="none" stroke="#ffffff" d="M53.78,-22.81C62.78,-25.07 73.24,-27.7 83.2,-30.2"/>
<polygon fill="none" stroke="#ffffff" points="82.11,-33.54 92.66,-32.58 83.81,-26.75 82.11,-33.54"/>
</g>
<!-- C -->
<g id="node3" class="node">
<title>C</title>
<polygon fill="none" stroke="#ffffff" stroke-opacity="0.600000" points="218.38,-0.05 220.14,-0.14 221.88,-0.28 223.6,-0.46 225.28,-0.68 226.93,-0.96 228.53,-1.27 230.08,-1.63 231.57,-2.03 233,-2.47 234.36,-2.94 235.64,-3.46 236.85,-4.01 237.98,-4.6 239.03,-5.22 239.98,-5.87 240.85,-6.56 241.62,-7.27 242.3,-8 242.89,-8.76 243.39,-9.54 243.79,-10.35 244.09,-11.17 244.31,-12 244.43,-12.85 244.46,-13.71 244.41,-14.58 244.27,-15.45 244.05,-16.33 243.75,-17.2 243.37,-18.08 242.92,-18.95 242.41,-19.82 241.83,-20.68 241.18,-21.53 240.49,-22.36 239.73,-23.18 238.93,-23.98 238.09,-24.77 237.2,-25.53 236.27,-26.26 235.31,-26.97 234.32,-27.66 233.3,-28.31 232.26,-28.93 231.19,-29.52 230.11,-30.07 229.01,-30.58 227.89,-31.06 226.77,-31.5 225.63,-31.9 224.48,-32.26 223.32,-32.57 222.16,-32.84 221,-33.07 219.83,-33.25 218.66,-33.39 217.48,-33.48 216.31,-33.53 215.13,-33.53 213.95,-33.48 212.78,-33.39 211.61,-33.25 210.44,-33.07 209.27,-32.84 208.11,-32.57 206.96,-32.26 205.81,-31.9 204.67,-31.5 203.54,-31.06 202.43,-30.58 201.32,-30.07 200.24,-29.52 199.17,-28.93 198.13,-28.31 197.11,-27.66 196.12,-26.97 195.16,-26.26 194.23,-25.53 193.35,-24.77 192.5,-23.98 191.7,-23.18 190.95,-22.36 190.25,-21.53 189.61,-20.68 189.03,-19.82 188.51,-18.95 188.06,-18.08 187.69,-17.2 187.39,-16.33 187.17,-15.45 187.03,-14.58 186.97,-13.71 187.01,-12.85 187.13,-12 187.34,-11.17 187.65,-10.35 188.05,-9.54 188.54,-8.76 189.13,-8 189.81,-7.27 190.59,-6.56 191.45,-5.87 192.41,-5.22 193.45,-4.6 194.58,-4.01 195.79,-3.46 197.08,-2.94 198.44,-2.47 199.86,-2.03 201.36,-1.63 202.9,-1.27 204.5,-0.96 206.15,-0.68 207.84,-0.46 209.55,-0.28 211.3,-0.14 213.06,-0.05 214.83,0 216.61,0 218.38,-0.05"/>
<text text-anchor="middle" x="215.72" y="-12.66" font-family="terminus" font-size="13.00" fill="white">C</text>
</g>
<!-- A&#45;&gt;C -->
<g id="edge3" class="edge">
<title>A&#45;&gt;C</title>
<path fill="none" stroke="#ffffff" d="M57.66,-15.17C68.8,-14.6 81.75,-14.04 93.49,-13.76 119.03,-13.16 125.43,-13.16 150.97,-13.76 158.86,-13.95 167.29,-14.26 175.36,-14.62"/>
<polygon fill="none" stroke="#ffffff" points="175.13,-18.11 185.29,-15.09 175.47,-11.12 175.13,-18.11"/>
</g>
<!-- B&#45;&gt;C -->
<g id="edge2" class="edge">
<title>B&#45;&gt;C</title>
<path fill="none" stroke="#ffffff" d="M150.18,-32.99C159.43,-30.66 169.91,-28.03 179.7,-25.57"/>
<polygon fill="none" stroke="#ffffff" points="180.44,-28.99 189.29,-23.16 178.74,-22.2 180.44,-28.99"/>
</g>
</g>
</svg>
